<?xml version="1.0" encoding="UTF-8"?><svg id="Calque_1" xmlns="http://www.w3.org/2000/svg" viewBox="0 0 200.03 55.36"><defs><style>.cls-1,.cls-2{fill:#fff;}.cls-2{fill-rule:evenodd;}</style></defs><path class="cls-2" d="M49.1,17.24c7.91,2.42,13.06,6.32,13.06,10.44s-5.13,8.01-12.99,10.43c1.84,8.03,1.04,14.43-2.52,16.48-.84,.48-1.8,.71-2.86,.71-3.48,0-8.05-2.46-12.66-6.74-4.61,4.31-9.17,6.79-12.66,6.79-1.06,0-2.03-.23-2.85-.71-3.57-2.05-4.38-8.46-2.56-16.52C5.16,35.71,0,31.8,0,27.69s5.13-8,13.01-10.43c-1.84-8.03-1.04-14.43,2.52-16.49,.84-.48,1.8-.71,2.86-.71h0c3.48-.01,8.05,2.45,12.66,6.73C35.67,2.48,40.23,0,43.71,0h0c1.05,.01,2.01,.24,2.83,.72,3.57,2.05,4.38,8.46,2.56,16.52Zm-5.4-14.42c-2.64,0-6.51,2.11-10.63,5.94,1.79,1.86,3.56,3.99,5.27,6.34,2.85,.3,5.56,.77,8.05,1.38,.28-1.28,.51-2.53,.65-3.73,.58-4.84-.16-8.6-1.89-9.59-.39-.22-.86-.33-1.44-.33h0Zm-14.66,5.94c-4.13-3.81-8.02-5.9-10.64-5.9h0c-.58,.01-1.08,.11-1.46,.34-1.71,1-2.45,4.77-1.85,9.61,.15,1.18,.37,2.41,.66,3.67,2.48-.62,5.19-1.09,8.06-1.39,1.69-2.35,3.46-4.46,5.23-6.32Zm14.91,15.46c.66-1.69,1.24-3.37,1.71-5.01-1.66-.4-3.4-.74-5.2-1,.62,.96,1.24,1.95,1.82,2.96,.6,1.01,1.14,2.03,1.66,3.04Zm-4.09,8.49c-.99,1.71-2,3.33-3.05,4.84-1.89,.17-3.8,.25-5.73,.25s-3.83-.09-5.7-.24c-1.05-1.51-2.08-3.12-3.07-4.82-.96-1.66-1.84-3.35-2.64-5.04,.78-1.7,1.67-3.4,2.62-5.06,.99-1.71,2-3.33,3.05-4.84,1.89-.17,3.8-.25,5.73-.25s3.83,.09,5.7,.24c1.05,1.51,2.08,3.12,3.07,4.82,.96,1.66,1.84,3.35,2.63,5.04-.8,1.7-1.67,3.4-2.62,5.06Zm5.84,3.39c-.48-1.65-1.06-3.35-1.75-5.04-.52,1.01-1.06,2.04-1.65,3.05-.58,1.03-1.2,2.03-1.82,3,1.81-.27,3.56-.61,5.22-1.01Zm-14.6,8.48c-1.18-1.22-2.36-2.57-3.52-4.05,1.14,.05,2.31,.09,3.49,.09s2.37-.03,3.52-.09c-1.14,1.48-2.32,2.84-3.48,4.05Zm-14.62-8.46c1.66,.41,3.39,.74,5.19,1-.62-.96-1.23-1.95-1.82-2.96-.6-1.01-1.14-2.03-1.66-3.04-.66,1.68-1.24,3.37-1.71,5.01ZM31.04,10.77c1.18,1.22,2.36,2.57,3.52,4.06-1.14-.05-2.31-.09-3.49-.09s-2.37,.02-3.52,.09c1.14-1.48,2.32-2.84,3.48-4.06Zm-11.2,10.47c.58-1.03,1.2-2.03,1.82-3-1.81,.27-3.56,.61-5.22,1,.48,1.65,1.06,3.35,1.75,5.04,.52-1.01,1.07-2.03,1.65-3.04Zm-9.64,12.86c-4.49-1.91-7.39-4.42-7.39-6.41s2.9-4.51,7.39-6.41c1.09-.47,2.28-.89,3.51-1.28,.72,2.48,1.67,5.07,2.85,7.72-1.17,2.64-2.1,5.21-2.81,7.68-1.26-.39-2.45-.82-3.55-1.29Zm4.93,8.52c-.58,4.84,.17,8.6,1.89,9.59,.38,.21,.86,.33,1.43,.34,2.64,0,6.51-2.1,10.64-5.94-1.79-1.86-3.56-3.99-5.27-6.33-2.85-.3-5.56-.77-8.05-1.38-.28,1.28-.51,2.53-.65,3.73Zm31.94-.06c.6,4.84-.14,8.6-1.85,9.61-.38,.23-.87,.33-1.46,.33-2.62,0-6.51-2.09-10.64-5.9,1.77-1.86,3.55-3.98,5.23-6.32,2.86-.3,5.57-.77,8.06-1.39,.29,1.28,.52,2.51,.66,3.69Zm1.37-7.17c1.23-.39,2.42-.81,3.51-1.28,4.49-1.9,7.39-4.42,7.4-6.41,0-1.99-2.9-4.5-7.39-6.41-1.11-.47-2.31-.9-3.56-1.29-.71,2.47-1.65,5.04-2.81,7.68,1.18,2.65,2.13,5.23,2.85,7.72Z"/><circle class="cls-1" cx="31.07" cy="27.69" r="5.79"/><path class="cls-1" d="M83.16,44.79V12.88h11.97c2.45,0,4.51,.43,6.17,1.28,1.67,.85,2.93,2.05,3.79,3.58,.86,1.53,1.29,3.31,1.29,5.35s-.44,3.82-1.31,5.33c-.86,1.5-2.14,2.65-3.82,3.48-1.68,.81-3.75,1.21-6.2,1.21h-8.52v-4.8h7.74c1.43,0,2.61-.2,3.52-.59,.91-.4,1.59-.99,2.03-1.76,.45-.78,.67-1.73,.67-2.87s-.22-2.1-.67-2.9c-.45-.81-1.13-1.42-2.04-1.84-.91-.43-2.09-.64-3.54-.64h-5.3v27.08h-5.78Zm16.49-14.46l7.9,14.46h-6.45l-7.76-14.46h6.31Z"/><path class="cls-1" d="M121.71,45.26c-2.4,0-4.47-.5-6.22-1.5-1.73-1.01-3.07-2.43-4-4.27-.93-1.85-1.4-4.03-1.4-6.53s.47-4.62,1.4-6.48c.95-1.87,2.26-3.32,3.96-4.36,1.69-1.05,3.68-1.57,5.97-1.57,1.47,0,2.87,.24,4.18,.72,1.32,.47,2.48,1.19,3.49,2.18,1.02,.99,1.82,2.24,2.4,3.77,.58,1.52,.87,3.32,.87,5.42v1.73h-19.62v-3.8h14.21c0-1.08-.24-2.04-.7-2.88-.46-.85-1.1-1.52-1.92-2.01-.81-.49-1.76-.73-2.84-.73-1.15,0-2.17,.28-3.04,.84-.87,.55-1.55,1.28-2.04,2.18-.48,.89-.72,1.88-.73,2.95v3.32c0,1.39,.25,2.59,.76,3.58,.51,.99,1.22,1.75,2.14,2.28,.91,.52,1.98,.78,3.21,.78,.82,0,1.56-.11,2.23-.34,.67-.24,1.24-.59,1.73-1.04,.49-.46,.86-1.02,1.11-1.7l5.27,.59c-.33,1.39-.97,2.61-1.9,3.65-.93,1.03-2.11,1.83-3.55,2.4-1.44,.56-3.1,.84-4.96,.84Z"/><path class="cls-1" d="M144.01,45.28c-1.52,0-2.88-.27-4.1-.81-1.21-.55-2.16-1.36-2.87-2.43-.7-1.07-1.04-2.39-1.04-3.96,0-1.35,.25-2.47,.75-3.35,.5-.88,1.18-1.59,2.04-2.12,.86-.53,1.83-.93,2.91-1.2,1.09-.28,2.22-.48,3.38-.61,1.4-.14,2.54-.27,3.41-.39,.87-.12,1.51-.31,1.9-.56,.4-.26,.61-.66,.61-1.2v-.09c0-1.17-.35-2.08-1.04-2.73-.7-.64-1.7-.97-3.01-.97-1.38,0-2.48,.3-3.29,.9-.8,.6-1.34,1.31-1.62,2.14l-5.27-.75c.41-1.45,1.1-2.67,2.06-3.65,.95-.99,2.12-1.72,3.51-2.21,1.38-.5,2.91-.75,4.58-.75,1.15,0,2.3,.14,3.44,.4,1.14,.27,2.19,.72,3.13,1.34,.95,.61,1.7,1.45,2.28,2.51,.58,1.06,.87,2.38,.87,3.97v16.02h-5.42v-3.29h-.19c-.34,.66-.82,1.29-1.45,1.87-.61,.57-1.39,1.03-2.32,1.39-.93,.34-2.01,.51-3.26,.51Zm1.47-4.15c1.13,0,2.11-.22,2.94-.67,.83-.46,1.47-1.06,1.92-1.81,.46-.75,.69-1.56,.69-2.45v-2.82c-.18,.14-.48,.28-.9,.4-.41,.12-.88,.23-1.4,.33-.52,.09-1.03,.18-1.54,.25-.51,.07-.95,.14-1.32,.19-.84,.11-1.6,.3-2.26,.56-.67,.26-1.19,.62-1.57,1.09-.38,.46-.58,1.05-.58,1.78,0,1.04,.38,1.82,1.14,2.35,.76,.53,1.72,.79,2.9,.79Z"/><path class="cls-1" d="M172.76,45.26c-2.39,0-4.44-.52-6.15-1.57-1.7-1.05-3.02-2.5-3.94-4.35-.91-1.86-1.37-4-1.37-6.42s.47-4.58,1.4-6.44c.94-1.87,2.25-3.32,3.96-4.36,1.71-1.05,3.74-1.57,6.08-1.57,1.94,0,3.66,.36,5.16,1.07,1.51,.71,2.71,1.71,3.6,3.01,.89,1.29,1.4,2.79,1.53,4.52h-5.39c-.22-1.15-.74-2.11-1.56-2.88-.81-.78-1.9-1.17-3.26-1.17-1.15,0-2.17,.31-3.04,.93-.87,.61-1.55,1.5-2.04,2.65-.48,1.15-.72,2.54-.72,4.14s.24,3.03,.72,4.21c.48,1.16,1.15,2.06,2.01,2.7,.87,.62,1.9,.93,3.07,.93,.83,0,1.57-.16,2.23-.47,.66-.32,1.22-.78,1.67-1.39,.45-.6,.75-1.33,.92-2.2h5.39c-.14,1.69-.63,3.2-1.5,4.5-.86,1.3-2.04,2.32-3.52,3.05-1.49,.73-3.23,1.09-5.24,1.09Z"/><path class="cls-1" d="M199.59,20.86v4.36h-13.76v-4.36h13.76Zm-10.36-5.73h5.64v22.47c0,.76,.11,1.34,.34,1.74,.24,.39,.55,.67,.93,.81,.38,.15,.81,.22,1.28,.22,.35,0,.67-.03,.97-.08,.3-.05,.53-.1,.69-.14l.95,4.41c-.3,.1-.73,.22-1.29,.34-.55,.12-1.23,.2-2.03,.22-1.41,.04-2.68-.17-3.82-.64-1.13-.48-2.03-1.21-2.7-2.21-.65-1-.98-2.24-.97-3.74V15.12Z"/></svg>