<?xml version="1.0" encoding="UTF-8"?><svg id="Calque_1" xmlns="http://www.w3.org/2000/svg" viewBox="0 0 180 65.46"><defs><style>.cls-1{fill:#fff;fill-rule:evenodd;}</style></defs><path class="cls-1" d="M47.86,0h28.71L38.29,65.46,0,0H30.08l8.2,15.04L47.86,0ZM18.63,5.47H9.4l28.88,49.23L67,5.47h-9.23l-19.48,33.84L18.63,5.47Zm65.56,7.38c-.51,.31-.77,.7-.77,1.16h0c0,.06,.03,.18,.09,.37l9.59,30.81c.28,.9,1.07,1.34,2.38,1.34s2.14-.45,2.48-1.34l9.49-30.81c0-.06,0-.12,.02-.19,.02-.06,.02-.11,.02-.14,0-.43-.26-.82-.77-1.16-.51-.34-1.07-.51-1.66-.51-.72,0-1.18,.29-1.4,.88l-8.18,27.52-8.23-27.52c-.19-.59-.67-.88-1.45-.88-.56,0-1.1,.15-1.61,.46Zm23.68,12.83v12.05h0c0,2.38,.91,4.46,2.74,6.23s4,2.66,6.52,2.66,4.65-.89,6.48-2.66c1.82-1.78,2.74-3.85,2.74-6.23v-12.09c0-.37-.18-.69-.54-.95-.36-.26-.82-.39-1.38-.39-.53,0-.99,.14-1.38,.42-.39,.28-.58,.59-.58,.93v12.09c0,1.42-.53,2.68-1.59,3.78-1.06,1.1-2.31,1.64-3.74,1.64s-2.73-.56-3.79-1.67-1.59-2.36-1.59-3.75v-12.05c0-.34-.19-.66-.58-.95-.39-.29-.83-.44-1.33-.44-.53,0-.99,.14-1.38,.42-.39,.28-.59,.6-.59,.97Zm21.64,7.09v4.86h0c0,2.69,.97,4.86,2.9,6.51,1.93,1.65,4.43,2.48,7.48,2.48,2.09,0,3.84-.37,5.26-1.11,1.42-.74,2.13-1.47,2.13-2.18,0-.4-.16-.8-.47-1.18-.31-.39-.68-.58-1.12-.58-.28,0-.65,.15-1.12,.44-.47,.29-1.08,.6-1.85,.9-.76,.31-1.66,.46-2.69,.46-1.96,0-3.56-.51-4.79-1.53-1.23-1.02-1.85-2.38-1.85-4.08v-1.39h10.24c.65,0,1.18-.03,1.57-.09,.39-.06,.81-.21,1.26-.44,.45-.23,.79-.62,1.01-1.16,.22-.54,.33-1.26,.33-2.15,0-2.44-.89-4.47-2.67-6.09-1.78-1.62-3.88-2.43-6.31-2.43-2.56,0-4.75,.86-6.57,2.59-1.82,1.73-2.74,3.78-2.74,6.16Zm12.53,1.02h-8.65v-1.67c0-1.42,.53-2.62,1.59-3.59s2.32-1.46,3.79-1.46,2.76,.52,3.79,1.57c1.03,1.05,1.54,2.27,1.54,3.66,0,.59-.14,.98-.42,1.18-.28,.2-.83,.3-1.64,.3Zm8.41,8.59c-.47,.48-.7,1.06-.7,1.74s.23,1.21,.7,1.69c.47,.48,1.04,.72,1.73,.72s1.22-.24,1.68-.72c.47-.48,.7-1.04,.7-1.69s-.23-1.26-.7-1.74c-.47-.48-1.03-.72-1.68-.72s-1.26,.24-1.73,.72Zm3.22,11.58c-.31,.33-.47,.73-.47,1.23,0,1.11,.67,1.67,2.01,1.67,2.15,0,3.76-.79,4.82-2.36,1.06-1.57,1.59-3.71,1.59-6.39V25.63c0-.4-.19-.73-.56-.97-.37-.25-.84-.37-1.4-.37s-1.02,.12-1.38,.37c-.36,.25-.54,.57-.54,.97v22.47c0,1.79-.19,3.13-.56,4.03-.37,.9-1.17,1.34-2.38,1.34-.44,0-.81,.16-1.12,.49Zm4.26-39.45c-.47,.43-.7,.94-.7,1.53s.24,1.1,.72,1.55c.48,.45,1.05,.67,1.71,.67s1.22-.22,1.68-.67c.47-.45,.7-.96,.7-1.55s-.23-1.1-.7-1.53c-.47-.43-1.03-.65-1.68-.65s-1.26,.22-1.73,.65Zm6.99,27.4c-.26,.39-.4,.78-.4,1.18h0c0,.83,.75,1.63,2.24,2.39,1.5,.76,3.3,1.14,5.42,1.14,2.46,0,4.38-.56,5.75-1.67,1.37-1.11,2.06-2.63,2.06-4.54,0-1.54-.39-2.8-1.17-3.78-.78-.97-1.73-1.66-2.85-2.06-1.12-.4-2.25-.74-3.39-1.02-1.14-.28-2.1-.67-2.88-1.16-.78-.49-1.17-1.17-1.17-2.04s.35-1.58,1.05-2.25c.7-.66,1.77-1,3.2-1,1.06,0,2.13,.22,3.2,.67,1.07,.45,1.67,.67,1.8,.67,.44,0,.8-.23,1.1-.69,.3-.46,.44-.88,.44-1.25,0-.65-.68-1.23-2.06-1.74-1.37-.51-2.88-.76-4.54-.76-2.59,0-4.51,.64-5.78,1.92-1.26,1.28-1.89,2.8-1.89,4.56,0,1.42,.39,2.56,1.17,3.43,.78,.86,1.73,1.48,2.85,1.85,1.12,.37,2.24,.71,3.37,1.02,1.12,.31,2.07,.76,2.85,1.37,.78,.6,1.17,1.41,1.17,2.43,0,.83-.35,1.53-1.05,2.08-.7,.56-1.83,.83-3.39,.83-1.18,0-2.21-.18-3.09-.53-.87-.35-1.54-.72-2.01-1.09-.47-.37-.83-.56-1.08-.56-.38,0-.69,.19-.96,.58Z"/></svg>