<svg viewBox="0 0 810 808" fill="none" xmlns="http://www.w3.org/2000/svg">
<path d="M762.776 768.141C759.498 787.185 757.86 796.707 751.158 802.353C744.457 808 734.795 808 715.471 808L92.529 808C73.2052 808 63.5433 808 56.8419 802.353C50.1404 796.707 48.5018 787.185 45.2244 768.141L32.6615 695.141C28.179 669.094 25.9378 656.071 33.1297 647.535C40.3217 639 53.5365 639 79.9661 639L728.034 639C754.464 639 767.678 639 774.87 647.535C782.062 656.071 779.821 669.094 775.338 695.141L762.776 768.141Z" fill="#444444"/>
<path d="M762.283 768.056C760.642 777.591 759.418 784.696 757.772 790.126C756.131 795.543 754.085 799.233 750.836 801.971C747.587 804.708 743.603 806.099 737.986 806.798C732.356 807.499 725.146 807.5 715.471 807.5L92.529 807.5C82.8543 807.5 75.6444 807.499 70.0138 806.798C64.397 806.099 60.4128 804.708 57.1641 801.971C53.9152 799.233 51.8694 795.543 50.2276 790.126C48.5817 784.696 47.358 777.591 45.7172 768.056L33.1542 695.056C30.9104 682.018 29.2378 672.291 29.0175 664.757C28.7976 657.236 30.0291 651.991 33.5121 647.858C36.9951 643.724 41.955 641.621 49.4042 640.562C56.8671 639.501 66.736 639.5 79.9661 639.5L728.034 639.5C741.264 639.5 751.133 639.501 758.596 640.562C766.045 641.621 771.005 643.724 774.488 647.858C777.971 651.991 779.202 657.236 778.983 664.757C778.762 672.292 777.09 682.018 774.846 695.056L762.283 768.056Z" stroke="url(#paint0_radial_101_108)" stroke-opacity="0.6"/>
<g filter="url(#filter0_f_101_108)">
<path d="M767.992 692.831C763.034 721.637 760.556 736.04 752.095 746.027C748.617 750.133 744.473 753.624 739.837 756.356C728.56 763 713.945 763 684.716 763L123.284 763C94.0547 763 79.4399 763 68.1627 756.356C63.5269 753.624 59.3832 750.133 55.9051 746.027C47.4443 736.04 44.9656 721.637 40.0083 692.831C33.2454 653.533 29.8638 633.884 37.6504 619.342C40.8126 613.436 45.1759 608.258 50.4597 604.14C63.4706 594 83.4085 594 123.284 594L684.716 594C724.592 594 744.529 594 757.54 604.14C762.824 608.258 767.187 613.437 770.35 619.342C778.136 633.884 774.755 653.533 767.992 692.831Z" fill="#010101" fill-opacity="0.2"/>
</g>
<g filter="url(#filter1_b_101_108)">
<path d="M26.231 109.109C28.4475 57.4891 29.5558 31.6789 46.09 15.8395C62.6241 0 88.4581 0 140.126 0H669.874C721.542 0 747.376 0 763.91 15.8395C780.444 31.6789 781.552 57.4891 783.769 109.109L804.895 601.11C807.292 656.945 808.491 684.862 791.661 702.431C774.83 720 746.887 720 691 720H119C63.1135 720 35.1702 720 18.3395 702.431C1.50878 684.862 2.70753 656.945 5.10503 601.109L26.231 109.109Z" fill="url(#paint1_linear_101_108)" fill-opacity="0.3"/>
<path d="M26.7305 109.131C27.8394 83.3069 28.6699 63.9882 31.2838 49.1433C33.8951 34.3126 38.2757 24.0178 46.4358 16.2005C54.596 8.38321 65.0693 4.44833 79.9983 2.47562C94.9417 0.501024 114.278 0.5 140.126 0.5H669.874C695.722 0.5 715.058 0.501024 730.002 2.47562C744.931 4.44833 755.404 8.38321 763.564 16.2005C771.724 24.0178 776.105 34.3126 778.716 49.1433C781.33 63.9883 782.161 83.3069 783.27 109.131L804.396 601.131C805.595 629.063 806.491 649.961 804.99 666.074C803.491 682.172 799.605 693.415 791.299 702.085C782.994 710.755 771.928 715.12 755.909 717.308C739.875 719.499 718.958 719.5 691 719.5H119C91.0424 719.5 70.1253 719.499 54.0915 717.308C38.0721 715.12 27.0062 710.755 18.7006 702.085C10.3949 693.415 6.50875 682.172 5.00953 666.074C3.50897 649.961 4.4052 629.063 5.60457 601.131L26.7305 109.131Z" stroke="url(#paint2_radial_101_108)" stroke-opacity="0.6"/>
</g>
<path d="M38.0511 102.878C39.9194 59.4097 40.8535 37.6756 54.7769 24.3378C68.7003 11 90.4544 11 133.963 11H676.037C719.546 11 741.3 11 755.223 24.3378C769.147 37.6756 770.081 59.4097 771.949 102.878L793.697 608.878C795.718 655.898 796.728 679.409 782.555 694.204C768.381 709 744.849 709 697.785 709H112.215C65.1506 709 41.6185 709 27.4452 694.204C13.2718 679.409 14.2823 655.898 16.3032 608.878L38.0511 102.878Z" fill="white" fill-opacity="0.3"/>
<path d="M38.5506 102.899C39.4854 81.1514 40.1853 64.8898 42.3857 52.3956C44.5837 39.9157 48.268 31.2654 55.1227 24.6989C61.9775 18.1324 70.7781 14.8229 83.3409 13.1629C95.918 11.501 112.195 11.5 133.963 11.5H676.037C697.805 11.5 714.082 11.501 726.659 13.1629C739.222 14.8229 748.022 18.1324 754.877 24.6989C761.732 31.2654 765.416 39.9157 767.614 52.3956C769.815 64.8898 770.515 81.1514 771.449 102.899L793.197 608.899C794.208 632.424 794.963 650.016 793.701 663.579C792.44 677.127 789.171 686.575 782.194 693.859C775.217 701.142 765.918 704.813 752.436 706.655C738.94 708.499 721.332 708.5 697.785 708.5H112.215C88.6682 708.5 71.0595 708.499 57.5636 706.655C44.082 704.813 34.7832 701.142 27.8062 693.859C20.8293 686.575 17.5604 677.127 16.2992 663.579C15.0367 650.016 15.7917 632.424 16.8028 608.899L38.5506 102.899Z" stroke="url(#paint3_radial_101_108)" stroke-opacity="0.6"/>
<rect x="58" y="29" width="692" height="477" rx="38" fill="url(#paint4_linear_101_108)" fill-opacity="0.3"/>
<rect x="58.5" y="29.5" width="691" height="476" rx="37.5" stroke="url(#paint5_radial_101_108)" stroke-opacity="0.6"/>
<g clip-path="url(#clip0_101_108)">
<rect x="80" y="48" width="648" height="437" rx="30" fill="#1A1A1A"/>
<g filter="url(#filter2_d_101_108)">
</g>
</g>
<rect x="80.5" y="48.5" width="647" height="436" rx="29.5" stroke="url(#paint6_radial_101_108)" stroke-opacity="0.6"/>
<mask id="path-13-inside-1_101_108" fill="white">
<path fill-rule="evenodd" clip-rule="evenodd" d="M528.191 622H413.5C406.478 622 402.967 622 400.444 620.315C399.352 619.585 398.415 618.648 397.685 617.556C396 615.033 396 611.522 396 604.5C396 597.478 396 593.967 397.685 591.444C398.415 590.352 399.352 589.415 400.444 588.685C402.967 587 406.478 587 413.5 587H528.191C528.626 576.086 530.054 569.419 534.737 564.737C541.473 558 552.315 558 574 558H704C725.685 558 736.527 558 743.263 564.737C750 571.473 750 582.315 750 604V605C750 626.685 750 637.527 743.263 644.263C736.527 651 725.685 651 704 651H574C552.315 651 541.473 651 534.737 644.263C530.054 639.581 528.626 632.914 528.191 622Z"/>
</mask>
<path fill-rule="evenodd" clip-rule="evenodd" d="M528.191 622H413.5C406.478 622 402.967 622 400.444 620.315C399.352 619.585 398.415 618.648 397.685 617.556C396 615.033 396 611.522 396 604.5C396 597.478 396 593.967 397.685 591.444C398.415 590.352 399.352 589.415 400.444 588.685C402.967 587 406.478 587 413.5 587H528.191C528.626 576.086 530.054 569.419 534.737 564.737C541.473 558 552.315 558 574 558H704C725.685 558 736.527 558 743.263 564.737C750 571.473 750 582.315 750 604V605C750 626.685 750 637.527 743.263 644.263C736.527 651 725.685 651 704 651H574C552.315 651 541.473 651 534.737 644.263C530.054 639.581 528.626 632.914 528.191 622Z" fill="url(#paint7_radial_101_108)" fill-opacity="0.3"/>
<path d="M528.191 622L529.19 621.96L529.152 621H528.191V622ZM400.444 620.315L399.889 621.146H399.889L400.444 620.315ZM397.685 617.556L396.854 618.111L396.854 618.111L397.685 617.556ZM397.685 591.444L396.854 590.889L396.854 590.889L397.685 591.444ZM400.444 588.685L401 589.517L401 589.517L400.444 588.685ZM528.191 587V588H529.152L529.19 587.04L528.191 587ZM534.737 564.737L535.444 565.444L534.737 564.737ZM743.263 644.263L743.971 644.971L743.263 644.263ZM528.191 621H413.5V623H528.191V621ZM413.5 621C409.968 621 407.394 620.999 405.386 620.794C403.394 620.592 402.069 620.198 401 619.483L399.889 621.146C401.342 622.117 403.033 622.565 405.183 622.784C407.317 623.001 410.01 623 413.5 623V621ZM401 619.483C400.017 618.827 399.173 617.983 398.517 617L396.854 618.111C397.656 619.312 398.688 620.344 399.889 621.146L401 619.483ZM398.517 617C397.802 615.931 397.408 614.606 397.206 612.614C397.001 610.606 397 608.032 397 604.5H395C395 607.99 394.999 610.683 395.216 612.817C395.435 614.967 395.883 616.658 396.854 618.111L398.517 617ZM397 604.5C397 600.968 397.001 598.394 397.206 596.386C397.408 594.394 397.802 593.069 398.517 592L396.854 590.889C395.883 592.342 395.435 594.033 395.216 596.183C394.999 598.317 395 601.01 395 604.5H397ZM398.517 592C399.173 591.017 400.017 590.173 401 589.517L399.889 587.854C398.688 588.656 397.656 589.688 396.854 590.889L398.517 592ZM401 589.517C402.069 588.802 403.394 588.408 405.386 588.206C407.394 588.001 409.968 588 413.5 588V586C410.01 586 407.317 585.999 405.183 586.216C403.033 586.435 401.342 586.883 399.889 587.854L401 589.517ZM413.5 588H528.191V586H413.5V588ZM529.19 587.04C529.625 576.135 531.057 569.83 535.444 565.444L534.029 564.029C529.05 569.008 527.627 576.038 527.192 586.96L529.19 587.04ZM535.444 565.444C538.595 562.292 542.744 560.66 548.896 559.833C555.077 559.002 563.129 559 574 559V557C563.186 557 554.975 556.998 548.63 557.851C542.255 558.708 537.614 560.444 534.029 564.029L535.444 565.444ZM574 559H704V557H574V559ZM704 559C714.871 559 722.923 559.002 729.104 559.833C735.256 560.66 739.405 562.292 742.556 565.444L743.971 564.029C740.386 560.444 735.745 558.708 729.371 557.851C723.025 556.998 714.814 557 704 557V559ZM742.556 565.444C745.708 568.595 747.34 572.744 748.167 578.896C748.998 585.077 749 593.129 749 604H751C751 593.186 751.002 584.975 750.149 578.629C749.292 572.255 747.556 567.614 743.971 564.029L742.556 565.444ZM749 604V605H751V604H749ZM749 605C749 615.871 748.998 623.923 748.167 630.104C747.34 636.256 745.708 640.405 742.556 643.556L743.971 644.971C747.556 641.386 749.292 636.745 750.149 630.37C751.002 624.025 751 615.814 751 605H749ZM742.556 643.556C739.405 646.708 735.256 648.34 729.104 649.167C722.923 649.998 714.871 650 704 650V652C714.814 652 723.025 652.002 729.371 651.149C735.745 650.292 740.386 648.556 743.971 644.971L742.556 643.556ZM704 650H574V652H704V650ZM574 650C563.129 650 555.077 649.998 548.896 649.167C542.744 648.34 538.595 646.708 535.444 643.556L534.029 644.971C537.614 648.556 542.255 650.292 548.63 651.149C554.975 652.002 563.186 652 574 652V650ZM535.444 643.556C531.057 639.17 529.625 632.865 529.19 621.96L527.192 622.04C527.627 632.962 529.05 639.992 534.029 644.971L535.444 643.556Z" fill="url(#paint8_radial_101_108)" fill-opacity="0.6" mask="url(#path-13-inside-1_101_108)"/>
<rect x="550" y="579" width="178" height="51" rx="8" fill="#3E3D3C"/>
<rect x="404" y="594" width="300" height="21" rx="7" fill="#1A1A1A"/>
<rect x="404.5" y="594.5" width="299" height="20" rx="6.5" stroke="url(#paint9_radial_101_108)" stroke-opacity="0.7"/>
<defs>
<filter id="filter0_f_101_108" x="16.168" y="577" width="775.664" height="203" filterUnits="userSpaceOnUse" color-interpolation-filters="sRGB">
<feFlood flood-opacity="0" result="BackgroundImageFix"/>
<feBlend mode="normal" in="SourceGraphic" in2="BackgroundImageFix" result="shape"/>
<feGaussianBlur stdDeviation="8.5" result="effect1_foregroundBlur_101_108"/>
</filter>
<filter id="filter1_b_101_108" x="-116.278" y="-120" width="1042.56" height="960" filterUnits="userSpaceOnUse" color-interpolation-filters="sRGB">
<feFlood flood-opacity="0" result="BackgroundImageFix"/>
<feGaussianBlur in="BackgroundImage" stdDeviation="60"/>
<feComposite in2="SourceAlpha" operator="in" result="effect1_backgroundBlur_101_108"/>
<feBlend mode="normal" in="SourceGraphic" in2="effect1_backgroundBlur_101_108" result="shape"/>
</filter>
<filter id="filter2_d_101_108" x="54.3385" y="26.4474" width="579.617" height="554.246" filterUnits="userSpaceOnUse" color-interpolation-filters="sRGB">
<feFlood flood-opacity="0" result="BackgroundImageFix"/>
<feColorMatrix in="SourceAlpha" type="matrix" values="0 0 0 0 0 0 0 0 0 0 0 0 0 0 0 0 0 0 127 0" result="hardAlpha"/>
<feOffset/>
<feGaussianBlur stdDeviation="36.5112"/>
<feComposite in2="hardAlpha" operator="out"/>
<feColorMatrix type="matrix" values="0 0 0 0 0.35 0 0 0 0 0.805 0 0 0 0 1 0 0 0 1 0"/>
<feBlend mode="normal" in2="BackgroundImageFix" result="effect1_dropShadow_101_108"/>
<feBlend mode="normal" in="SourceGraphic" in2="effect1_dropShadow_101_108" result="shape"/>
</filter>
<radialGradient id="paint0_radial_101_108" cx="0" cy="0" r="1" gradientUnits="userSpaceOnUse" gradientTransform="translate(-18.0001 746.5) rotate(-3.13677) scale(316.9 89.3876)">
<stop offset="0.0208333" stop-color="white"/>
<stop offset="1" stop-color="white" stop-opacity="0"/>
</radialGradient>
<linearGradient id="paint1_linear_101_108" x1="769.205" y1="1.33269e-06" x2="-89.9447" y2="508.054" gradientUnits="userSpaceOnUse">
<stop stop-color="#494949"/>
<stop offset="0.838542" stop-color="white"/>
</linearGradient>
<radialGradient id="paint2_radial_101_108" cx="0" cy="0" r="1" gradientUnits="userSpaceOnUse" gradientTransform="translate(-45 487.5) rotate(-15.0915) scale(582.308 393.417)">
<stop offset="0.0208333" stop-color="white"/>
<stop offset="1" stop-color="white" stop-opacity="0"/>
</radialGradient>
<radialGradient id="paint3_radial_101_108" cx="0" cy="0" r="1" gradientUnits="userSpaceOnUse" gradientTransform="translate(33 275) rotate(7.30248) scale(484.832 327.517)">
<stop offset="0.0208333" stop-color="white"/>
<stop offset="1" stop-color="white" stop-opacity="0"/>
</radialGradient>
<linearGradient id="paint4_linear_101_108" x1="622.5" y1="104" x2="86" y2="506" gradientUnits="userSpaceOnUse">
<stop stop-color="#5D4C44"/>
<stop offset="1" stop-color="#26211E"/>
</linearGradient>
<radialGradient id="paint5_radial_101_108" cx="0" cy="0" r="1" gradientUnits="userSpaceOnUse" gradientTransform="translate(736 493.5) rotate(-149.768) scale(751.74 475.123)">
<stop offset="0.0208333" stop-color="white"/>
<stop offset="1" stop-color="white" stop-opacity="0"/>
</radialGradient>
<radialGradient id="paint6_radial_101_108" cx="0" cy="0" r="1" gradientUnits="userSpaceOnUse" gradientTransform="translate(165.629 48) rotate(31.2795) scale(392.644 237.834)">
<stop offset="0.0208333" stop-color="white"/>
<stop offset="1" stop-color="white" stop-opacity="0"/>
</radialGradient>
<radialGradient id="paint7_radial_101_108" cx="0" cy="0" r="1" gradientUnits="userSpaceOnUse" gradientTransform="translate(501.773 609.016) rotate(-129.779) scale(50.4393 77.6752)">
<stop stop-color="#5D4C44"/>
<stop offset="1" stop-color="#26211E"/>
</radialGradient>
<radialGradient id="paint8_radial_101_108" cx="0" cy="0" r="1" gradientUnits="userSpaceOnUse" gradientTransform="translate(546.743 621.083) rotate(-169.586) scale(153.643 39.6854)">
<stop offset="0.0208333" stop-color="white"/>
<stop offset="1" stop-color="white" stop-opacity="0"/>
</radialGradient>
<radialGradient id="paint9_radial_101_108" cx="0" cy="0" r="1" gradientUnits="userSpaceOnUse" gradientTransform="translate(623.5 640.5) rotate(-20.9647) scale(254.337 21.8062)">
<stop offset="0.0208333" stop-color="white"/>
<stop offset="1" stop-color="white" stop-opacity="0"/>
</radialGradient>
<clipPath id="clip0_101_108">
<rect x="80" y="48" width="648" height="437" rx="30" fill="white"/>
</clipPath>
</defs>
</svg>
