<?xml version="1.0" encoding="UTF-8"?><svg id="Calque_1" xmlns="http://www.w3.org/2000/svg" viewBox="0 0 124.05 75"><defs><style>.cls-1{fill:#fff;}</style></defs><path class="cls-1" d="M29.27,19.56h23.4v1.86H31.42v14.03h19.98v1.86H31.42v15.4h21.5v1.86H29.27V19.56Zm25.49,0h2.49l11.02,15.4,11.26-15.4L94.84,0l-25.16,36.58,12.97,18h-2.58l-11.8-16.38-11.84,16.38h-2.54l13.06-18-12.18-17.02h0Zm28.81,1.86v-1.86h26.66v1.86h-12.28V54.58h-2.15V21.42h-12.23ZM0,19.56H2.68l36.97,55.44-15.28-20.42L2.24,22.21l-.1,32.37H0V19.56ZM110.02,52.15c-.44,0-.77-.34-.77-.78s.33-.78,.77-.78,.77,.34,.77,.78-.32,.78-.77,.78h0Zm2.11-2.05h1.15c.02,.62,.47,1.04,1.14,1.04,.75,0,1.17-.45,1.17-1.29v-5.34h1.17v5.34c0,1.52-.88,2.39-2.33,2.39-1.36,0-2.3-.85-2.3-2.15h0Zm6.15-.07h1.16c.1,.72,.8,1.17,1.8,1.17,.94,0,1.63-.49,1.63-1.16,0-.58-.44-.92-1.43-1.16l-.97-.23c-1.36-.32-1.98-.98-1.98-2.09,0-1.35,1.1-2.24,2.74-2.24,1.53,0,2.65,.9,2.71,2.17h-1.14c-.11-.7-.71-1.13-1.59-1.13-.92,0-1.54,.45-1.54,1.13,0,.54,.4,.85,1.38,1.08l.83,.2c1.54,.36,2.18,.99,2.18,2.13,0,1.44-1.12,2.35-2.9,2.35-1.67,0-2.79-.87-2.87-2.21h0Z"/></svg>