<?xml version="1.0" encoding="UTF-8"?><svg id="Calque_1" xmlns="http://www.w3.org/2000/svg" viewBox="0 0 220 53.74"><defs><style>.cls-1{fill:#fff;}</style></defs><path class="cls-1" d="M19.95,2.36C23.54,.2,27.81-.51,31.9,.37c4.09,.88,7.7,3.28,10.08,6.72,1.19,1.67,2.03,3.55,2.48,5.55,.45,2,.5,4.06,.14,6.07-.36,1.92-1.09,3.75-2.15,5.38,1.56,2.98,2.09,6.4,1.5,9.72-.36,1.97-1.12,3.83-2.24,5.49-1.12,1.66-2.57,3.06-4.26,4.12l-12.54,7.96c-3.59,2.16-7.86,2.87-11.95,1.99-4.09-.88-7.7-3.28-10.08-6.72-1.19-1.66-2.03-3.54-2.48-5.53-.45-1.99-.5-4.05-.14-6.06,.34-1.92,1.07-3.75,2.14-5.38-1.56-2.98-2.09-6.4-1.5-9.72,.35-1.97,1.12-3.84,2.23-5.49,1.12-1.65,2.57-3.06,4.26-4.12L19.95,2.36Zm-7.2,44.76c1.92,.71,4.01,.81,5.99,.3,.9-.24,1.76-.62,2.54-1.12l12.56-7.98c1.02-.64,1.89-1.49,2.56-2.49,.67-1,1.13-2.13,1.34-3.31,.22-1.2,.21-2.44-.05-3.63-.26-1.2-.75-2.33-1.45-3.33-1.16-1.67-2.81-2.95-4.73-3.66-1.91-.71-4-.82-5.97-.3-.9,.24-1.76,.62-2.54,1.12l-4.82,2.99c-.24,.15-.49,.27-.76,.34-.59,.15-1.22,.12-1.79-.1-.57-.21-1.07-.6-1.41-1.1-.22-.3-.37-.64-.45-1.01-.08-.36-.09-.74-.03-1.1,.07-.36,.21-.7,.41-1,.2-.3,.47-.56,.77-.75l12.54-7.97c.24-.15,.5-.26,.78-.33,.59-.15,1.21-.13,1.78,.08,.57,.21,1.07,.58,1.42,1.08,.36,.56,.51,1.23,.42,1.88v.48l.48,.13c1.74,.52,3.39,1.32,4.86,2.38l.64,.48,.24-.72c.12-.38,.23-.77,.3-1.17,.21-1.21,.18-2.45-.09-3.64-.27-1.2-.78-2.33-1.5-3.32-1.16-1.67-2.81-2.95-4.72-3.66-1.91-.71-3.99-.82-5.97-.3-.89,.24-1.75,.61-2.53,1.11L11.01,15.47c-1.02,.64-1.89,1.48-2.57,2.48-.67,1-1.13,2.12-1.34,3.31-.23,1.2-.21,2.44,.05,3.63,.26,1.2,.75,2.33,1.45,3.33,1.16,1.67,2.81,2.95,4.72,3.66,1.91,.71,3.99,.82,5.97,.3,.9-.24,1.76-.61,2.54-1.11l4.81-2.99c.24-.16,.5-.27,.78-.34,.59-.15,1.22-.12,1.8,.09,.57,.21,1.07,.6,1.42,1.1,.22,.3,.37,.64,.45,1,.08,.36,.09,.73,.03,1.1-.06,.36-.2,.7-.4,1-.2,.3-.47,.56-.78,.75l-12.53,7.98c-.24,.15-.49,.27-.76,.34-.59,.15-1.22,.12-1.8-.09-.58-.21-1.07-.6-1.42-1.11-.39-.54-.57-1.19-.52-1.85v-.48l-.49-.13c-1.75-.53-3.4-1.35-4.88-2.44l-.66-.48-.22,.72c-.13,.38-.23,.77-.3,1.17-.22,1.21-.19,2.45,.08,3.64,.27,1.2,.78,2.33,1.49,3.33,1.18,1.72,2.87,3.02,4.83,3.72Z"/><path class="cls-1" d="M71.95,41.64c-2.53,0-4.71-.61-6.56-1.84-1.85-1.25-3.12-2.95-3.83-5.1l3.99-1.47c.6,1.33,1.47,2.39,2.61,3.18,1.14,.76,2.46,1.14,3.95,1.14,1.57,0,2.82-.38,3.75-1.14,.95-.76,1.43-1.85,1.43-3.26,0-.6-.14-1.14-.41-1.63-.24-.52-.53-.94-.86-1.26-.33-.33-.83-.65-1.51-.98-.68-.35-1.25-.61-1.71-.77-.43-.19-1.09-.43-1.96-.73-1.09-.38-1.9-.68-2.44-.9-.54-.22-1.26-.57-2.16-1.06-.87-.52-1.54-1.02-2-1.51-.43-.52-.83-1.18-1.18-2-.35-.82-.53-1.73-.53-2.73,0-2.1,.81-3.86,2.44-5.3,1.63-1.44,3.84-2.16,6.64-2.16,2.33,0,4.25,.52,5.74,1.55,1.52,1.03,2.54,2.41,3.06,4.12l-3.91,1.31c-.38-.87-1.02-1.56-1.92-2.08-.87-.54-1.97-.82-3.3-.82s-2.43,.3-3.22,.9c-.76,.6-1.14,1.44-1.14,2.53,0,.74,.3,1.39,.9,1.96,.6,.57,1.22,.99,1.87,1.26,.65,.27,1.64,.64,2.97,1.1,.82,.3,1.41,.53,1.79,.69,.41,.14,.99,.38,1.75,.74,.76,.35,1.34,.68,1.75,.98,.41,.27,.88,.65,1.43,1.14,.54,.49,.95,.99,1.22,1.51,.3,.49,.54,1.1,.73,1.84,.22,.71,.33,1.47,.33,2.28,0,2.67-.91,4.76-2.73,6.28-1.82,1.5-4.16,2.24-7.01,2.24Z"/><path class="cls-1" d="M98.13,41.15l-9.78-28.56h4.56l6.48,19.91c.41,1.25,.71,2.34,.9,3.26,.19-.92,.49-2.01,.9-3.26l6.4-19.91h4.52l-9.74,28.56h-4.24Z"/><path class="cls-1" d="M120.71,40.93V12.37h17.68v4h-13.44v7.83h8.68v4h-8.68v8.73h14.34v4h-18.58Z"/><path class="cls-1" d="M150.16,41.15V12.59h4.24v24.48h13.93v4.08h-18.17Z"/><path class="cls-1" d="M184.64,16.67v24.48h-4.24V16.67h-8.07v-4.08h20.37v4.08h-8.06Z"/><path class="cls-1" d="M201.42,41.15V12.59h17.68v4h-13.44v7.83h8.68v4h-8.68v8.73h14.34v4h-18.58Z"/></svg>